Coordinates
version=1
nRows=16
nColumns=42
inDegrees=yes

Units are S.I. units (second, meters, Newtons, ...)
If the header above contains a line with 'inDegrees', this indicates whether rotational values are in degrees (yes) or radians (no).

endheader
time	pelvis_tilt	pelvis_list	pelvis_rotation	pelvis_tx	pelvis_ty	pelvis_tz	hip_flexion_r	hip_adduction_r	hip_rotation_r	knee_angle_r	knee_adduction_r	knee_angle_r_beta	ankle_angle_r	subtalar_angle_r	mtp_angle_r	hip_flexion_l	hip_adduction_l	hip_rotation_l	knee_angle_l	knee_adduction_l	knee_angle_l_beta	ankle_angle_l	subtalar_angle_l	mtp_angle_l	lumbar_extension	lumbar_bending	lumbar_rotation	arm_flex_r	arm_add_r	arm_rot_r	elbow_flex_r	pro_sup_r	wrist_flex_r	wrist_dev_r	arm_flex_l	arm_add_l	arm_rot_l	elbow_flex_l	pro_sup_l	wrist_flex_l	wrist_dev_l
      2.99000000	     11.85188250	    -11.80837648	     -6.04208433	     -0.37155209	      0.86323956	      0.14587717	     13.48324485	      1.05109278	    -24.24528516	     28.25307560	     -6.26193088	      0.49310919	     -1.74731339	      8.79047749	     -7.52218712	     -9.77617629	    -10.69681064	    -28.02475984	     21.90176704	     -3.60659078	      0.38225795	     19.11647987	     29.56944598	     -7.52218712	    -34.45712468	      8.32236464	      0.63496463	    -14.51703088	      0.11488007	    -14.57193983	    108.09234596	     90.00000001	      0.00000000	      0.00000000	     -1.30642428	    -12.82231138	    -16.31874317	     50.29219585	     90.00000001	      0.00000000	      0.00000000
      3.00000000	     12.01921690	    -11.64944322	     -5.76796316	     -0.36959681	      0.86293296	      0.14665562	     13.54473668	      1.04832148	    -24.51814481	     28.18026557	     -6.31852455	      0.49183842	     -1.96240673	      8.81985277	     -7.52204159	    -10.06013595	    -10.56503526	    -27.63984339	     21.78668473	     -3.58676503	      0.38024938	     19.25980950	     29.55132486	     -7.52204159	    -34.45875912	      8.18015967	      0.51209476	    -14.63143795	      0.12303065	    -14.62279688	    108.13187771	     90.00000001	      0.00000000	      0.00000000	     -1.44602126	    -12.74134466	    -16.34190759	     50.11262296	     90.00000001	      0.00000000	      0.00000000
      3.01000000	     12.11957197	    -11.49448245	     -5.49393456	     -0.36764641	      0.86250690	      0.14756757	     13.65048391	      1.09262774	    -24.53383017	     28.20629298	     -6.26770221	      0.49229268	     -2.02524062	      8.84274000	     -7.52192299	    -10.17540763	    -10.50051019	    -27.40221286	     21.86389665	     -3.60699223	      0.38159698	     19.26102339	     29.44304502	     -7.52192299	    -34.32633108	      7.99459991	      0.49193301	    -14.63789472	      0.11330565	    -14.62011336	    108.10593555	     90.00000001	      0.00000000	      0.00000000	     -1.50058367	    -12.68721277	    -16.32716272	     50.08103442	     90.00000001	      0.00000000	      0.00000000
      3.02000000	     12.28294034	    -11.31484327	     -5.20278345	     -0.36550654	      0.86214856	      0.14831504	     13.62579438	      1.08673944	    -24.77580487	     28.10898505	     -6.33707252	      0.49059434	     -2.20581698	      8.88316217	     -7.52179808	    -10.45165938	    -10.36196158	    -27.02471952	     21.79261770	     -3.58353988	      0.38035293	     19.43201189	     29.42986657	     -7.52179808	    -34.33594858	      7.87657552	      0.39939203	    -14.76575598	      0.12353964	    -14.66252170	    108.13667934	     90.00000001	      0.00000000	      0.00000000	     -1.67427999	    -12.55857327	    -16.34244390	     49.88862916	     90.00000001	      0.00000000	      0.00000000
      3.03000000	     12.35207199	    -11.16104729	     -4.94674329	     -0.36336413	      0.86165998	      0.14930463	     13.68654709	      1.15144515	    -24.77741194	     28.12886812	     -6.29549502	      0.49094136	     -2.23918163	      8.90209482	     -7.52174057	    -10.56817065	    -10.32374345	    -26.88964346	     21.85722482	     -3.61674279	      0.38148054	     19.43877037	     29.38396884	     -7.52174057	    -34.18306595	      7.71779539	      0.39256064	    -14.76070268	      0.11492353	    -14.65900429	    108.12761201	     90.00000001	      0.00000000	      0.00000000	     -1.69541462	    -12.52183727	    -16.33299201	     49.87282544	     90.00000001	      0.00000000	      0.00000000
      3.04000000	     12.68362532	    -10.98863879	     -4.47202320	     -0.36094540	      0.86145860	      0.15004925	     13.33336061	      1.11235770	    -25.41039523	     27.94101424	     -6.40250024	      0.48766269	     -2.67344319	      9.17956267	     -7.52143359	    -11.08259837	    -10.16046540	    -25.95762405	     21.65377831	     -3.49755166	      0.37792973	     20.02386086	     29.40893019	     -7.52143359	    -34.30907927	      7.63643368	      0.18913365	    -14.85879467	      0.18789929	    -14.68775950	    108.26612722	     90.00000001	      0.00000000	      0.00000000	     -1.69004377	    -12.44289392	    -16.45831844	     49.42739079	     90.00000001	      0.00000000	      0.00000000
      3.05000000	     12.70162689	    -10.82550965	     -4.23892815	     -0.35862661	      0.86088768	      0.15109209	     13.37774228	      1.19453170	    -25.37951667	     27.96995134	     -6.36927086	      0.48816774	     -2.67780683	      9.19509316	     -7.52138905	    -11.16213362	    -10.12546719	    -25.88813871	     21.72766800	     -3.52960594	      0.37921935	     20.00908537	     29.35803054	     -7.52138905	    -34.13415846	      7.48837428	      0.21269679	    -14.85091190	      0.17588061	    -14.68164051	    108.25199139	     90.00000001	      0.00000000	      0.00000000	     -1.72957876	    -12.39010266	    -16.44495864	     49.41885276	     90.00000001	      0.00000000	      0.00000000
      3.06000000	     12.74641012	    -10.64865808	     -4.01753981	     -0.35611845	      0.86029926	      0.15211404	     13.33900446	      1.26865572	    -25.37081229	     27.96748721	     -6.37917261	      0.48812474	     -2.68487826	      9.21827232	     -7.52133524	    -11.28385874	    -10.04861373	    -25.74289766	     21.82515600	     -3.58647718	      0.38092083	     20.03470467	     29.32429220	     -7.52133524	    -33.96097235	      7.34903212	      0.21925257	    -14.89383097	      0.16784865	    -14.68112815	    108.23377356	     90.00000001	      0.00000000	      0.00000000	     -1.83581618	    -12.26640716	    -16.42784092	     49.36257949	     90.00000001	      0.00000000	      0.00000000
      3.07000000	     12.75711774	    -10.47539276	     -3.77172997	     -0.35357791	      0.85966888	      0.15320868	     13.30724675	      1.35649261	    -25.35326646	     27.98200603	     -6.36116497	      0.48837814	     -2.68776699	      9.23024936	     -7.52129600	    -11.37389656	    -10.00522186	    -25.64172330	     21.89777485	     -3.63266061	      0.38218827	     20.04685890	     29.29176513	     -7.52129600	    -33.76861078	      7.19703766	      0.23999940	    -14.89942903	      0.15932025	    -14.67449427	    108.22191152	     90.00000001	      0.00000000	      0.00000000	     -1.89683632	    -12.19520814	    -16.41459451	     49.33810711	     90.00000001	      0.00000000	      0.00000000
      3.08000000	     13.09641091	    -10.33503634	     -3.28247587	     -0.35072385	      0.85940294	      0.15407743	     12.72247624	      1.44402038	    -25.80486892	     27.66259556	     -6.46362410	      0.48280337	     -2.67844644	      9.59374793	     -7.52088782	    -11.88370201	     -9.92169068	    -24.72498040	     21.86763065	     -3.55444444	      0.38166215	     20.95738975	     29.27917669	     -7.52088782	    -33.90196509	      7.19630731	      0.02457407	    -15.00612570	      0.18761504	    -14.56420065	    108.25864974	     90.00000001	      0.00000000	      0.00000000	     -1.91575322	    -12.00377205	    -16.59815632	     48.80624211	     90.00000001	      0.00000000	      0.00000000
      3.09000000	     13.06122310	    -10.16218529	     -3.06104879	     -0.34797234	      0.85869708	      0.15524725	     12.67050572	      1.53494013	    -25.77570555	     27.69750336	     -6.44092326	      0.48341263	     -2.67622029	      9.60429298	     -7.52085352	    -11.94960144	     -9.89341634	    -24.66803310	     21.93260173	     -3.60098663	      0.38279611	     20.94737560	     29.24297698	     -7.52085352	    -33.66955030	      7.05638937	      0.06679528	    -14.98837404	      0.17840629	    -14.55339423	    108.25105908	     90.00000001	      0.00000000	      0.00000000	     -1.95007164	    -11.96044172	    -16.58983985	     48.80065945	     90.00000001	      0.00000000	      0.00000000
      3.10000000	     13.03148285	     -9.98657503	     -2.83947537	     -0.34508208	      0.85796523	      0.15645173	     12.57379784	      1.62927547	    -25.74813164	     27.72182929	     -6.42843474	      0.48383720	     -2.66634240	      9.61126196	     -7.52082023	    -12.03055300	     -9.84903292	    -24.58579832	     22.01144958	     -3.66385785	      0.38417227	     20.95042152	     29.21587430	     -7.52082023	    -33.42305493	      6.92299335	      0.10494491	    -14.97965350	      0.17335727	    -14.54023400	    108.24111908	     90.00000001	      0.00000000	      0.00000000	     -2.00091038	    -11.89329324	    -16.57791020	     48.78579980	     90.00000001	      0.00000000	      0.00000000
      3.11000000	     13.19813469	     -9.79404103	     -2.41574134	     -0.34203024	      0.85746957	      0.15741032	     12.06929687	      1.71413780	    -25.82372800	     27.41455963	     -6.39785194	      0.47847433	     -2.41213895	      9.63881179	     -7.52066189	    -12.23586136	     -9.72469626	    -24.05361021	     22.19110021	     -3.86540411	      0.38730776	     21.37297709	     29.28478229	     -7.52066189	    -33.38681622	      6.87257457	     -0.05779958	    -15.08922621	      0.20935315	    -14.43984191	    108.17997850	     90.00000001	      0.00000000	      0.00000000	     -2.09969524	    -11.69298854	    -16.61861035	     48.58633547	     90.00000001	      0.00000000	      0.00000000
      3.12000000	     13.13547142	     -9.62756930	     -2.20654503	     -0.33896575	      0.85666887	      0.15871386	     11.95405801	      1.81951992	    -25.79542722	     27.45596209	     -6.38137356	      0.47919694	     -2.39968695	      9.64435682	     -7.52062978	    -12.31168339	     -9.70749811	    -23.99005163	     22.24851819	     -3.90305227	      0.38830990	     21.38494467	     29.25638736	     -7.52062978	    -33.12037696	      6.74694909	     -0.00657532	    -15.05000929	      0.20292982	    -14.42059136	    108.17624108	     90.00000001	      0.00000000	      0.00000000	     -2.12875246	    -11.65554624	    -16.61334347	     48.57936403	     90.00000001	      0.00000000	      0.00000000
      3.13000000	     13.32338155	     -9.54418151	     -1.79481766	     -0.33567459	      0.85615669	      0.15986413	     11.35257680	      2.04740565	    -25.85591124	     27.14917579	     -6.34514910	      0.47384251	     -1.85058477	      9.72035429	     -7.52018137	    -12.65497166	     -9.76369445	    -23.41803958	     22.34359220	     -3.90900294	      0.38996925	     22.33708462	     29.37669794	     -7.52018137	    -33.10480729	      6.79678371	     -0.13426201	    -14.99871747	      0.14841794	    -14.10213827	    108.08510591	     90.00000001	      0.00000000	      0.00000000	     -2.12691819	    -11.48766578	    -16.84353496	     48.20356143	     90.00000001	      0.00000000	      0.00000000
      3.14000000	     13.23790326	     -9.37284802	     -1.59236968	     -0.33241551	      0.85530713	      0.16122876	     11.20662703	      2.14547105	    -25.82272659	     27.19189573	     -6.33316797	      0.47458811	     -1.83856859	      9.72236014	     -7.52014844	    -12.71419920	     -9.74456414	    -23.35862307	     22.40705158	     -3.96851240	      0.39107683	     22.33260421	     29.34771471	     -7.52014844	    -32.81486635	      6.67133426	     -0.07821778	    -14.96067429	      0.14364860	    -14.08316280	    108.08186666	     90.00000001	      0.00000000	      0.00000000	     -2.15679572	    -11.44304293	    -16.83691136	     48.20102890	     90.00000001	      0.00000000	      0.00000000
